<svg width="32" height="32" viewBox="0 0 32 32" fill="none" xmlns="http://www.w3.org/2000/svg">
    <path d="M4.55202 18.3707L2.66669 20.256L9.26535 23.084L12.0947 29.684L13.98 27.7987L13.0374 23.084L17.4547 18.6667L22.268 28.9387L24.0534 27.1533L22.4667 13.656L26.2374 9.88399C26.492 9.638 26.6952 9.34375 26.835 9.01841C26.9747 8.69306 27.0483 8.34314 27.0514 7.98906C27.0544 7.63499 26.987 7.28384 26.8529 6.95612C26.7188 6.62839 26.5208 6.33065 26.2704 6.08027C26.02 5.82989 25.7223 5.63189 25.3946 5.4978C25.0668 5.36372 24.7157 5.29625 24.3616 5.29933C24.0075 5.3024 23.6576 5.37597 23.3323 5.51572C23.0069 5.65548 22.7127 5.85863 22.4667 6.11333L18.596 9.98399L5.09869 8.39599L3.41202 10.084L13.604 14.9773L9.26669 19.3147L4.55202 18.3707Z" fill="white"/>
</svg>
