<svg width="32" height="32" viewBox="0 0 32 32" fill="none" xmlns="http://www.w3.org/2000/svg">
    <path d="M22.6667 25.3333H25.3334V14.6667H17.3334V25.3333H20V17.3333H22.6667V25.3333ZM4.00002 25.3333V5.33333C4.00002 4.97971 4.1405 4.64057 4.39054 4.39052C4.64059 4.14048 4.97973 4 5.33335 4H24C24.3536 4 24.6928 4.14048 24.9428 4.39052C25.1929 4.64057 25.3334 4.97971 25.3334 5.33333V12H28V25.3333H29.3334V28H2.66669V25.3333H4.00002ZM9.33335 14.6667V17.3333H12V14.6667H9.33335ZM9.33335 20V22.6667H12V20H9.33335ZM9.33335 9.33333V12H12V9.33333H9.33335Z" fill="white"/>
</svg>
