<svg width="24" height="24" viewBox="0 0 24 24" fill="none" xmlns="http://www.w3.org/2000/svg">
    <path d="M3.42306 8.29065L19.2952 2.79638C19.5612 2.70428 19.8478 2.6889 20.1221 2.752C20.3964 2.81509 20.6475 2.95411 20.8465 3.15316C21.0456 3.35222 21.1846 3.60327 21.2477 3.87761C21.3108 4.15195 21.2954 4.43851 21.2033 4.70453L15.7092 20.5767C15.6102 20.873 15.4199 21.1304 15.1656 21.3117C14.9112 21.493 14.6059 21.5891 14.2936 21.586C14.2843 21.586 14.2749 21.5859 14.2656 21.5858C13.9485 21.5837 13.6404 21.4797 13.3869 21.289C13.1334 21.0984 12.948 20.8313 12.858 20.5271L10.6497 13.3501L3.47249 11.1418C3.17017 11.0487 2.905 10.8625 2.71488 10.6097C2.52477 10.3569 2.41944 10.0504 2.41396 9.73414C2.40848 9.41787 2.50311 9.10796 2.68435 8.8487C2.86558 8.58945 3.12414 8.39412 3.42305 8.29065H3.42306Z" fill="white"/>
</svg>
