<svg width="109" height="32" viewBox="0 0 109 32" fill="none" xmlns="http://www.w3.org/2000/svg">
    <g clip-path="url(#clip0_8_463)">
        <path d="M28 15.0742C27.8672 15.2305 27.7461 15.3945 27.6367 15.5664C27.5273 15.7383 27.4102 15.9062 27.2852 16.0703C27.0977 16.3359 26.9023 16.6016 26.6992 16.8672C26.4961 17.1328 26.2773 17.3867 26.043 17.6289C25.8086 17.8711 25.5586 18.0938 25.293 18.2969C25.0273 18.5 24.7383 18.6641 24.4258 18.7891C24.082 18.9297 23.7227 19.0508 23.3477 19.1523C22.9727 19.2539 22.5977 19.3086 22.2227 19.3164C22.1367 19.3164 22.0547 19.3086 21.9766 19.293C21.8984 19.2773 21.8164 19.2617 21.7305 19.2461C22.7227 20.293 23.5547 21.4453 24.2266 22.7031C24.8984 23.9609 25.4336 25.2852 25.832 26.6758C25.8555 26.7617 25.8672 26.8477 25.8672 26.9336C25.8672 27.1758 25.7773 27.3672 25.5977 27.5078C25.418 27.6484 25.2109 27.7227 24.9766 27.7305C24.75 27.7305 24.582 27.6797 24.4727 27.5781C24.3633 27.4766 24.2656 27.3281 24.1797 27.1328C24.1328 27.0234 24.0977 26.9141 24.0742 26.8047C24.0508 26.6953 24.0156 26.582 23.9688 26.4648C23.8984 26.2461 23.8242 26.0312 23.7461 25.8203C23.668 25.6094 23.582 25.3945 23.4883 25.1758C23.1289 24.3008 22.7031 23.4609 22.2109 22.6562C21.7188 21.8516 21.1445 21.1016 20.4883 20.4062C20.4648 20.8203 20.4258 21.2344 20.3711 21.6484C20.3164 22.0625 20.2383 22.4688 20.1367 22.8672C20.0352 23.2969 19.8516 23.7266 19.5859 24.1562C19.3203 24.5859 19.0078 25.0039 18.6484 25.4102C18.2891 25.8164 17.918 26.1875 17.5352 26.5234C17.1523 26.8594 16.7773 27.1562 16.4102 27.4141C16.1914 27.2422 15.9766 26.9805 15.7656 26.6289C15.5547 26.2773 15.3555 25.8984 15.168 25.4922C14.9805 25.0859 14.8164 24.6758 14.6758 24.2617C14.5352 23.8477 14.4219 23.5078 14.3359 23.2422C14.0781 23.3828 13.7266 23.5078 13.2812 23.6172C12.8359 23.7266 12.3359 23.8281 11.7812 23.9219C11.2266 24.0156 10.6484 24.0898 10.0469 24.1445C9.44531 24.1992 8.86328 24.2578 8.30078 24.3203C7.73828 24.3828 7.22656 24.4219 6.76562 24.4375C6.30469 24.4531 5.92969 24.4727 5.64062 24.4961C5.75781 24.2148 5.90625 23.8633 6.08594 23.4414C6.26562 23.0195 6.47266 22.5625 6.70703 22.0703C6.94141 21.5781 7.19141 21.0742 7.45703 20.5586C7.72266 20.043 8 19.5547 8.28906 19.0938C8.57812 18.6328 8.85938 18.2227 9.13281 17.8633C9.40625 17.5039 9.67578 17.2227 9.94141 17.0195C9.69922 16.7461 9.47266 16.457 9.26172 16.1523C9.05078 15.8477 8.83984 15.5391 8.62891 15.2266C7.61328 13.6953 6.72656 12.0938 5.96875 10.4219C5.21094 8.75 4.55469 7.03906 4 5.28906C4.11719 5.25 4.24609 5.21875 4.38672 5.19531C4.52734 5.17188 4.67188 5.15625 4.82031 5.14844C4.96875 5.14062 5.11719 5.13281 5.26562 5.125C5.41406 5.11719 5.55078 5.11328 5.67578 5.11328C6.00391 5.11328 6.40625 5.125 6.88281 5.14844C7.35938 5.17188 7.84766 5.21094 8.34766 5.26562C8.84766 5.32031 9.32812 5.38672 9.78906 5.46484C10.25 5.54297 10.6367 5.63281 10.9492 5.73438C11.3086 5.85938 11.7188 6.01953 12.1797 6.21484C12.6406 6.41016 13.0977 6.64062 13.5508 6.90625C14.0039 7.17188 14.4297 7.45703 14.8281 7.76172C15.2266 8.06641 15.5273 8.39453 15.7305 8.74609C16.4336 8.50391 17.1289 8.23828 17.8164 7.94922C18.5039 7.66016 19.1758 7.33203 19.832 6.96484C20.4883 6.59766 21.1133 6.19922 21.707 5.76953C22.3008 5.33984 22.8594 4.83984 23.3828 4.26953C23.6484 4.67578 23.8555 5.10156 24.0039 5.54688C24.1523 5.99219 24.2695 6.44531 24.3555 6.90625C24.4414 7.36719 24.4961 7.83984 24.5195 8.32422C24.543 8.80859 24.5664 9.28125 24.5898 9.74219C24.6055 10.2578 24.7031 10.7812 24.8828 11.3125C25.0625 11.8438 25.3086 12.3516 25.6211 12.8359C25.9336 13.3203 26.293 13.7578 26.6992 14.1484C27.1055 14.5391 27.5391 14.8477 28 15.0742Z" fill="white"/>
    </g>
    <path d="M52.6 10.256V10.616C52.24 10.676 51.964 10.79 51.772 10.958C51.58 11.126 51.448 11.384 51.376 11.732C51.316 12.08 51.286 12.572 51.286 13.208V23.018C51.13 22.994 50.962 22.982 50.782 22.982C50.602 22.982 50.41 22.994 50.206 23.018L42.304 13.712V19.76C42.304 20.492 42.34 21.056 42.412 21.452C42.484 21.836 42.646 22.112 42.898 22.28C43.15 22.448 43.546 22.568 44.086 22.64V23C43.858 22.976 43.552 22.964 43.168 22.964C42.796 22.952 42.442 22.946 42.106 22.946C41.842 22.946 41.566 22.952 41.278 22.964C41.002 22.964 40.768 22.976 40.576 23V22.64C40.96 22.568 41.242 22.454 41.422 22.298C41.614 22.13 41.74 21.872 41.8 21.524C41.86 21.164 41.89 20.672 41.89 20.048V12.164C41.89 11.72 41.86 11.396 41.8 11.192C41.74 10.976 41.614 10.832 41.422 10.76C41.23 10.676 40.948 10.628 40.576 10.616V10.256C40.768 10.268 41.002 10.28 41.278 10.292C41.566 10.304 41.842 10.31 42.106 10.31C42.406 10.31 42.694 10.304 42.97 10.292C43.246 10.28 43.498 10.268 43.726 10.256L50.872 18.428V13.496C50.872 12.764 50.836 12.206 50.764 11.822C50.704 11.426 50.548 11.144 50.296 10.976C50.056 10.796 49.654 10.676 49.09 10.616V10.256C49.33 10.268 49.636 10.28 50.008 10.292C50.392 10.304 50.746 10.31 51.07 10.31C51.358 10.31 51.64 10.304 51.916 10.292C52.192 10.28 52.42 10.268 52.6 10.256ZM56.5886 23.126C56.0366 23.126 55.5806 23.024 55.2206 22.82C54.8606 22.604 54.5966 22.322 54.4286 21.974C54.2606 21.626 54.1766 21.254 54.1766 20.858C54.1766 20.354 54.2906 19.94 54.5186 19.616C54.7586 19.292 55.0646 19.034 55.4366 18.842C55.8086 18.638 56.1986 18.47 56.6066 18.338C57.0146 18.206 57.4046 18.08 57.7766 17.96C58.1486 17.828 58.4486 17.678 58.6766 17.51C58.9046 17.33 59.0186 17.102 59.0186 16.826V15.332C59.0186 15.068 58.9766 14.822 58.8926 14.594C58.8206 14.354 58.6826 14.162 58.4786 14.018C58.2866 13.862 58.0166 13.784 57.6686 13.784C57.4526 13.784 57.2426 13.814 57.0386 13.874C56.8346 13.934 56.6546 14.03 56.4986 14.162C56.8826 14.294 57.1646 14.492 57.3446 14.756C57.5366 15.02 57.6326 15.314 57.6326 15.638C57.6326 16.082 57.4766 16.436 57.1646 16.7C56.8646 16.952 56.5046 17.078 56.0846 17.078C55.6286 17.078 55.2746 16.934 55.0226 16.646C54.7826 16.358 54.6626 16.01 54.6626 15.602C54.6626 15.242 54.7526 14.942 54.9326 14.702C55.1126 14.45 55.3766 14.222 55.7246 14.018C56.0726 13.814 56.4926 13.664 56.9846 13.568C57.4766 13.472 57.9986 13.424 58.5506 13.424C59.1146 13.424 59.6306 13.484 60.0986 13.604C60.5786 13.712 60.9866 13.934 61.3226 14.27C61.5866 14.546 61.7546 14.882 61.8266 15.278C61.8986 15.674 61.9346 16.178 61.9346 16.79V21.65C61.9346 21.95 61.9586 22.16 62.0066 22.28C62.0666 22.388 62.1566 22.442 62.2766 22.442C62.3846 22.442 62.4866 22.412 62.5826 22.352C62.6786 22.292 62.7746 22.226 62.8706 22.154L63.0686 22.46C62.8046 22.676 62.4926 22.844 62.1326 22.964C61.7726 23.072 61.3826 23.126 60.9626 23.126C60.4826 23.126 60.1046 23.066 59.8286 22.946C59.5646 22.814 59.3726 22.64 59.2526 22.424C59.1446 22.208 59.0846 21.968 59.0726 21.704C58.8086 22.136 58.4786 22.484 58.0826 22.748C57.6866 23 57.1886 23.126 56.5886 23.126ZM58.0826 21.83C58.2746 21.83 58.4426 21.794 58.5866 21.722C58.7426 21.638 58.8866 21.5 59.0186 21.308V17.564C58.9226 17.732 58.7906 17.894 58.6226 18.05C58.4666 18.194 58.2986 18.344 58.1186 18.5C57.9386 18.644 57.7646 18.806 57.5966 18.986C57.4406 19.166 57.3086 19.382 57.2006 19.634C57.1046 19.874 57.0566 20.168 57.0566 20.516C57.0566 20.984 57.1526 21.32 57.3446 21.524C57.5366 21.728 57.7826 21.83 58.0826 21.83ZM68.486 10.742V13.676H70.43V14.036H68.486V21.398C68.486 21.698 68.54 21.914 68.648 22.046C68.756 22.166 68.918 22.226 69.134 22.226C69.314 22.226 69.5 22.166 69.692 22.046C69.896 21.926 70.082 21.722 70.25 21.434L70.538 21.614C70.31 22.106 69.992 22.502 69.584 22.802C69.188 23.102 68.666 23.252 68.018 23.252C67.622 23.252 67.268 23.198 66.956 23.09C66.656 22.994 66.404 22.844 66.2 22.64C65.936 22.376 65.762 22.052 65.678 21.668C65.606 21.272 65.57 20.762 65.57 20.138V14.036H64.13V13.676H65.57V11.426C66.134 11.426 66.65 11.372 67.118 11.264C67.598 11.156 68.054 10.982 68.486 10.742ZM74.3026 8.978C74.8666 8.978 75.3046 9.104 75.6166 9.356C75.9406 9.608 76.1026 9.974 76.1026 10.454C76.1026 10.934 75.9406 11.3 75.6166 11.552C75.3046 11.804 74.8666 11.93 74.3026 11.93C73.7386 11.93 73.2946 11.804 72.9706 11.552C72.6586 11.3 72.5026 10.934 72.5026 10.454C72.5026 9.974 72.6586 9.608 72.9706 9.356C73.2946 9.104 73.7386 8.978 74.3026 8.978ZM75.8866 13.478V21.326C75.8866 21.83 75.9646 22.172 76.1206 22.352C76.2886 22.532 76.5706 22.622 76.9666 22.622V23C76.7266 22.988 76.3726 22.976 75.9046 22.964C75.4366 22.94 74.9626 22.928 74.4826 22.928C74.0026 22.928 73.5106 22.94 73.0066 22.964C72.5146 22.976 72.1426 22.988 71.8906 23V22.622C72.2866 22.622 72.5626 22.532 72.7186 22.352C72.8866 22.172 72.9706 21.83 72.9706 21.326V15.638C72.9706 15.098 72.8926 14.702 72.7366 14.45C72.5806 14.186 72.2986 14.054 71.8906 14.054V13.676C72.2746 13.712 72.6466 13.73 73.0066 13.73C73.5466 13.73 74.0566 13.712 74.5366 13.676C75.0286 13.628 75.4786 13.562 75.8866 13.478ZM83.4249 13.424C84.3249 13.424 85.1109 13.586 85.7829 13.91C86.4669 14.222 86.9949 14.738 87.3669 15.458C87.7509 16.178 87.9429 17.138 87.9429 18.338C87.9429 19.538 87.7509 20.498 87.3669 21.218C86.9949 21.938 86.4669 22.46 85.7829 22.784C85.1109 23.096 84.3249 23.252 83.4249 23.252C82.5369 23.252 81.7509 23.096 81.0669 22.784C80.3949 22.46 79.8669 21.938 79.4829 21.218C79.0989 20.498 78.9069 19.538 78.9069 18.338C78.9069 17.138 79.0989 16.178 79.4829 15.458C79.8669 14.738 80.3949 14.222 81.0669 13.91C81.7509 13.586 82.5369 13.424 83.4249 13.424ZM83.4249 13.784C83.0049 13.784 82.6509 14.144 82.3629 14.864C82.0869 15.572 81.9489 16.73 81.9489 18.338C81.9489 19.946 82.0869 21.11 82.3629 21.83C82.6509 22.538 83.0049 22.892 83.4249 22.892C83.8569 22.892 84.2109 22.538 84.4869 21.83C84.7629 21.11 84.9009 19.946 84.9009 18.338C84.9009 16.73 84.7629 15.572 84.4869 14.864C84.2109 14.144 83.8569 13.784 83.4249 13.784ZM96.3465 13.424C96.7545 13.424 97.0785 13.514 97.3185 13.694C97.5585 13.862 97.7325 14.084 97.8405 14.36C97.9485 14.624 98.0025 14.888 98.0025 15.152C98.0025 15.644 97.8585 16.04 97.5705 16.34C97.2945 16.64 96.9285 16.79 96.4725 16.79C95.9925 16.79 95.6265 16.682 95.3745 16.466C95.1225 16.238 94.9965 15.938 94.9965 15.566C94.9965 15.194 95.0745 14.888 95.2305 14.648C95.3985 14.408 95.6025 14.204 95.8425 14.036C95.6625 14.012 95.4885 14.036 95.3205 14.108C95.1285 14.156 94.9485 14.246 94.7805 14.378C94.6125 14.51 94.4685 14.666 94.3485 14.846C94.2285 15.026 94.1325 15.224 94.0605 15.44C94.0005 15.644 93.9705 15.854 93.9705 16.07V21.146C93.9705 21.722 94.0965 22.112 94.3485 22.316C94.6125 22.52 95.0265 22.622 95.5905 22.622V23C95.3145 22.988 94.9065 22.976 94.3665 22.964C93.8265 22.94 93.2685 22.928 92.6925 22.928C92.1765 22.928 91.6545 22.94 91.1265 22.964C90.6105 22.976 90.2265 22.988 89.9745 23V22.622C90.3705 22.622 90.6465 22.532 90.8025 22.352C90.9705 22.172 91.0545 21.83 91.0545 21.326V15.638C91.0545 15.098 90.9765 14.702 90.8205 14.45C90.6645 14.186 90.3825 14.054 89.9745 14.054V13.676C90.3585 13.712 90.7305 13.73 91.0905 13.73C91.6305 13.73 92.1405 13.712 92.6205 13.676C93.1125 13.628 93.5625 13.562 93.9705 13.478V14.954C94.1145 14.642 94.3005 14.372 94.5285 14.144C94.7685 13.916 95.0385 13.742 95.3385 13.622C95.6505 13.49 95.9865 13.424 96.3465 13.424ZM101.948 23.126C101.396 23.126 100.94 23.024 100.58 22.82C100.22 22.604 99.9559 22.322 99.7879 21.974C99.6199 21.626 99.5359 21.254 99.5359 20.858C99.5359 20.354 99.6499 19.94 99.8779 19.616C100.118 19.292 100.424 19.034 100.796 18.842C101.168 18.638 101.558 18.47 101.966 18.338C102.374 18.206 102.764 18.08 103.136 17.96C103.508 17.828 103.808 17.678 104.036 17.51C104.264 17.33 104.378 17.102 104.378 16.826V15.332C104.378 15.068 104.336 14.822 104.252 14.594C104.18 14.354 104.042 14.162 103.838 14.018C103.646 13.862 103.376 13.784 103.028 13.784C102.812 13.784 102.602 13.814 102.398 13.874C102.194 13.934 102.014 14.03 101.858 14.162C102.242 14.294 102.524 14.492 102.704 14.756C102.896 15.02 102.992 15.314 102.992 15.638C102.992 16.082 102.836 16.436 102.524 16.7C102.224 16.952 101.864 17.078 101.444 17.078C100.988 17.078 100.634 16.934 100.382 16.646C100.142 16.358 100.022 16.01 100.022 15.602C100.022 15.242 100.112 14.942 100.292 14.702C100.472 14.45 100.736 14.222 101.084 14.018C101.432 13.814 101.852 13.664 102.344 13.568C102.836 13.472 103.358 13.424 103.91 13.424C104.474 13.424 104.99 13.484 105.458 13.604C105.938 13.712 106.346 13.934 106.682 14.27C106.946 14.546 107.114 14.882 107.186 15.278C107.258 15.674 107.294 16.178 107.294 16.79V21.65C107.294 21.95 107.318 22.16 107.366 22.28C107.426 22.388 107.516 22.442 107.636 22.442C107.744 22.442 107.846 22.412 107.942 22.352C108.038 22.292 108.134 22.226 108.23 22.154L108.428 22.46C108.164 22.676 107.852 22.844 107.492 22.964C107.132 23.072 106.742 23.126 106.322 23.126C105.842 23.126 105.464 23.066 105.188 22.946C104.924 22.814 104.732 22.64 104.612 22.424C104.504 22.208 104.444 21.968 104.432 21.704C104.168 22.136 103.838 22.484 103.442 22.748C103.046 23 102.548 23.126 101.948 23.126ZM103.442 21.83C103.634 21.83 103.802 21.794 103.946 21.722C104.102 21.638 104.246 21.5 104.378 21.308V17.564C104.282 17.732 104.15 17.894 103.982 18.05C103.826 18.194 103.658 18.344 103.478 18.5C103.298 18.644 103.124 18.806 102.956 18.986C102.8 19.166 102.668 19.382 102.56 19.634C102.464 19.874 102.416 20.168 102.416 20.516C102.416 20.984 102.512 21.32 102.704 21.524C102.896 21.728 103.142 21.83 103.442 21.83Z" fill="white"/>
    <defs>
        <clipPath id="clip0_8_463">
            <rect width="24" height="24" fill="white" transform="translate(4 4)"/>
        </clipPath>
    </defs>
</svg>
