<svg width="32" height="32" viewBox="0 0 32 32" fill="none" xmlns="http://www.w3.org/2000/svg">
    <path d="M16 4.26666C15.36 4.26666 15.1467 4.69333 14.72 5.12L2.3467 25.3867C2.13336 25.6 2.13336 26.0267 2.13336 26.24C2.13336 27.3067 2.9867 27.7333 3.6267 27.7333H28.3734C29.2267 27.7333 29.8667 27.3067 29.8667 26.24C29.8667 25.8133 29.8667 25.8133 29.6534 25.3867L17.4934 5.12C17.0667 4.69333 16.64 4.26666 16 4.26666ZM16 7.46666L23.04 19.2H21.3334L18.1334 16L16 19.2L13.8667 16L10.6667 19.2H8.74669L16 7.46666Z" fill="white"/>
</svg>
