<svg width="32" height="32" viewBox="0 0 32 32" fill="none" xmlns="http://www.w3.org/2000/svg">
    <path d="M27 8.125H22.75L21.7375 5.2875C21.6675 5.09334 21.5394 4.92551 21.3704 4.80693C21.2015 4.68835 21.0001 4.62482 20.7938 4.625H11.2063C10.7844 4.625 10.4062 4.89063 10.2656 5.2875L9.25 8.125H5C3.61875 8.125 2.5 9.24375 2.5 10.625V24.875C2.5 26.2563 3.61875 27.375 5 27.375H27C28.3813 27.375 29.5 26.2563 29.5 24.875V10.625C29.5 9.24375 28.3813 8.125 27 8.125ZM16 22.375C13.2375 22.375 11 20.1375 11 17.375C11 14.6125 13.2375 12.375 16 12.375C18.7625 12.375 21 14.6125 21 17.375C21 20.1375 18.7625 22.375 16 22.375ZM13 17.375C13 18.1706 13.3161 18.9337 13.8787 19.4963C14.4413 20.0589 15.2044 20.375 16 20.375C16.7956 20.375 17.5587 20.0589 18.1213 19.4963C18.6839 18.9337 19 18.1706 19 17.375C19 16.5794 18.6839 15.8163 18.1213 15.2537C17.5587 14.6911 16.7956 14.375 16 14.375C15.2044 14.375 14.4413 14.6911 13.8787 15.2537C13.3161 15.8163 13 16.5794 13 17.375Z" fill="white"/>
</svg>
