<svg width="24" height="24" viewBox="0 0 24 24" fill="none" xmlns="http://www.w3.org/2000/svg">
    <path d="M11.6892 4C15.9359 4 19.3785 7.36655 19.3785 11.5194C19.3785 13.4792 18.6118 15.264 17.3557 16.6024L19.826 19.0109C20.0576 19.2367 20.0581 19.6034 19.8271 19.8299C19.6171 20.0357 19.2882 20.0548 19.0561 19.8869L18.9896 19.8309L16.4902 17.3934C15.1745 18.4231 13.5054 19.0388 11.6892 19.0388C7.44259 19.0388 4 15.6723 4 11.5194C4 7.36655 7.44259 4 11.6892 4ZM11.6892 5.15819C8.09668 5.15819 5.18435 8.00621 5.18435 11.5194C5.18435 15.0326 8.09668 17.8806 11.6892 17.8806C15.2818 17.8806 18.1941 15.0326 18.1941 11.5194C18.1941 8.00621 15.2818 5.15819 11.6892 5.15819Z" fill="white"/>
</svg>
